<?xml version="1.0" encoding="utf-8"?>
<!-- Generator: Adobe Illustrator 19.1.0, SVG Export Plug-In . SVG Version: 6.00 Build 0)  -->
<svg version="1.1" id="Layer_1" xmlns="http://www.w3.org/2000/svg" xmlns:xlink="http://www.w3.org/1999/xlink" x="0px" y="0px"
	 viewBox="0 0 180 32" style="enable-background:new 0 0 180 32;" xml:space="preserve">
<style type="text/css">
	.st0{fill:#FFFFFF;}
	.st1{fill:#161717;}
</style>
<rect class="st0" width="180" height="32"/>
<g>
	<g>
		<path class="st1" d="M63.6,10.2h3c1.2,0,2.1,0.2,2.7,0.6c0.7,0.4,1,1.2,1,2.3c0,1.4-0.6,2.2-1.7,2.4c0.7,0.1,1.2,0.4,1.5,0.9
			c0.3,0.5,0.5,1.2,0.5,2c0,2.2-1.2,3.4-3.5,3.4h-3.6V10.2z M66.7,14.8c0.5,0,0.9-0.1,1.1-0.4c0.2-0.2,0.3-0.6,0.3-1.2
			c0-0.5-0.1-0.8-0.4-1c-0.2-0.2-0.6-0.4-1.1-0.4h-0.4v2.9H66.7z M66.7,20c0.5,0,0.9-0.1,1.2-0.4c0.2-0.3,0.3-0.7,0.3-1.3
			c0-0.7-0.1-1.1-0.3-1.4c-0.2-0.3-0.6-0.4-1.2-0.4h-0.5V20H66.7z"/>
		<path class="st1" d="M73.3,21.5c-0.5-0.3-0.9-0.7-1.1-1.2C72.1,19.7,72,19,72,18.2v-8h2.5v8.4c0,0.5,0.1,0.8,0.2,1.1
			c0.1,0.3,0.4,0.4,0.7,0.4c0.4,0,0.6-0.1,0.7-0.4c0.1-0.3,0.2-0.6,0.2-1.1v-8.4h2.5v8c0,0.8-0.1,1.5-0.3,2.1
			c-0.2,0.5-0.6,1-1.1,1.2C77,21.8,76.3,22,75.4,22C74.5,22,73.8,21.8,73.3,21.5z"/>
		<path class="st1" d="M81.9,17.1l-2.2-6.9h2.4l1.1,3.7l1-3.7h2.3l-2.2,6.9v4.7h-2.5V17.1z"/>
		<path class="st1" d="M91.2,10.2H93l2.4,5.6v-5.6h2.1v11.6h-1.7l-2.4-6v6h-2.2V10.2z"/>
		<path class="st1" d="M99.9,21c-0.5-0.6-0.8-1.6-0.8-2.9v-4.3c0-1.3,0.3-2.2,0.8-2.8c0.5-0.6,1.4-1,2.7-1c1.3,0,2.2,0.3,2.7,1
			s0.8,1.6,0.8,2.8v4.3c0,1.3-0.3,2.2-0.8,2.9s-1.4,1-2.7,1C101.3,22,100.4,21.6,99.9,21z M103.3,19.8c0.1-0.2,0.2-0.6,0.2-1v-5.6
			c0-0.4-0.1-0.8-0.2-1c-0.1-0.2-0.4-0.4-0.7-0.4c-0.3,0-0.6,0.1-0.7,0.4c-0.1,0.2-0.2,0.6-0.2,1v5.6c0,0.4,0.1,0.8,0.2,1
			c0.1,0.2,0.3,0.4,0.7,0.4C102.9,20.1,103.2,20,103.3,19.8z"/>
		<path class="st1" d="M107.2,10.2h2.2L110,17l0.9-6.7h1.7l0.9,6.7l0.7-6.7h2.1L115,21.8h-2.2l-1-7l-0.9,7h-2.3L107.2,10.2z"/>
	</g>
</g>
</svg>
