<?xml version="1.0" encoding="utf-8"?>
<!-- Generator: Adobe Illustrator 19.1.0, SVG Export Plug-In . SVG Version: 6.00 Build 0)  -->
<svg version="1.1" id="Layer_1" xmlns="http://www.w3.org/2000/svg" xmlns:xlink="http://www.w3.org/1999/xlink" x="0px" y="0px"
	 viewBox="0 0 180 32" style="enable-background:new 0 0 180 32;" xml:space="preserve">
<style type="text/css">
	.st0{fill:#FFFFFF;}
	.st1{fill:#161717;}
</style>
<rect class="st0" width="180" height="32"/>
<g>
	<g>
		<path class="st1" d="M50,21c-0.5-0.7-0.8-1.6-0.8-2.9v-4.2c0-1.3,0.3-2.2,0.8-2.9c0.5-0.7,1.4-1,2.7-1c1.2,0,2.1,0.3,2.6,0.9
			c0.5,0.6,0.8,1.4,0.8,2.5v1h-2.5v-1.2c0-0.4,0-0.8-0.1-1c-0.1-0.2-0.3-0.4-0.7-0.4S52.1,12,52,12.2c-0.1,0.3-0.2,0.6-0.2,1.1v5.5
			c0,0.5,0.1,0.8,0.2,1.1c0.1,0.2,0.4,0.4,0.7,0.4c0.4,0,0.6-0.1,0.7-0.4c0.1-0.2,0.2-0.6,0.2-1.1v-1.2h2.5v1c0,1.1-0.3,1.9-0.8,2.5
			c-0.5,0.6-1.4,0.9-2.6,0.9C51.5,22,50.6,21.6,50,21z"/>
		<path class="st1" d="M58.1,21c-0.5-0.6-0.8-1.6-0.8-2.9v-4.3c0-1.3,0.3-2.2,0.8-2.8c0.5-0.6,1.4-1,2.7-1c1.3,0,2.2,0.3,2.7,1
			s0.8,1.6,0.8,2.8v4.3c0,1.3-0.3,2.2-0.8,2.9s-1.4,1-2.7,1C59.5,22,58.7,21.6,58.1,21z M61.5,19.8c0.1-0.2,0.2-0.6,0.2-1v-5.6
			c0-0.4-0.1-0.8-0.2-1c-0.1-0.2-0.4-0.4-0.7-0.4c-0.3,0-0.6,0.1-0.7,0.4s-0.2,0.6-0.2,1v5.6c0,0.4,0.1,0.8,0.2,1
			c0.1,0.2,0.3,0.4,0.7,0.4S61.4,20,61.5,19.8z"/>
		<path class="st1" d="M66,10.2h2.7l1.3,6.7l1.4-6.7h2.6l0.2,11.6h-1.8l-0.2-7.7l-1.3,7.7h-1.6L67.8,14l-0.2,7.8h-1.8L66,10.2z"/>
		<path class="st1" d="M76,10.2h2.6v11.6H76V10.2z"/>
		<path class="st1" d="M80.3,10.2h1.8l2.4,5.6v-5.6h2.1v11.6h-1.7l-2.4-6v6h-2.2V10.2z"/>
		<path class="st1" d="M88.9,20.9c-0.5-0.7-0.7-1.7-0.7-3v-3.9c0-1.3,0.3-2.3,0.8-3c0.5-0.7,1.4-1,2.7-1c1.2,0,2.1,0.3,2.6,0.9
			c0.5,0.6,0.8,1.4,0.8,2.5v0.7h-2.5v-0.9c0-0.5-0.1-0.8-0.2-1c-0.1-0.2-0.3-0.4-0.7-0.4c-0.4,0-0.6,0.1-0.7,0.4s-0.2,0.6-0.2,1.1
			v5.4c0,0.5,0.1,0.8,0.2,1.1s0.4,0.4,0.8,0.4c0.7,0,1-0.5,1-1.5v-1.4h-1v-1.5H95v6h-1.7l-0.1-1c-0.4,0.8-1,1.1-1.9,1.1
			C90.2,22,89.4,21.6,88.9,20.9z"/>
		<path class="st1" d="M100.9,21.1c-0.5-0.6-0.8-1.5-0.9-2.8l2.2-0.3c0,0.7,0.1,1.3,0.3,1.6c0.2,0.3,0.4,0.5,0.8,0.5
			c0.4,0,0.6-0.3,0.6-0.8c0-0.4-0.1-0.8-0.3-1.2c-0.2-0.3-0.5-0.7-1-1l-1-0.9c-0.5-0.4-0.9-0.9-1.2-1.3c-0.3-0.4-0.4-1-0.4-1.7
			c0-1,0.3-1.7,0.9-2.2c0.6-0.5,1.4-0.8,2.4-0.8c1.1,0,1.8,0.3,2.2,1s0.6,1.4,0.6,2.3l-2.2,0.3c0-0.6-0.1-1-0.2-1.3
			s-0.3-0.4-0.6-0.4c-0.2,0-0.4,0.1-0.5,0.3c-0.1,0.2-0.2,0.4-0.2,0.6c0,0.4,0.1,0.7,0.3,1s0.5,0.6,0.8,0.9l1,0.8
			c0.6,0.5,1,1,1.3,1.6c0.3,0.5,0.5,1.2,0.5,1.9c0,0.5-0.1,1-0.4,1.5s-0.6,0.8-1.1,1.1s-1,0.4-1.6,0.4
			C102.3,22,101.4,21.7,100.9,21.1z"/>
		<path class="st1" d="M108.3,21c-0.5-0.6-0.8-1.6-0.8-2.9v-4.3c0-1.3,0.3-2.2,0.8-2.8c0.5-0.6,1.4-1,2.7-1c1.3,0,2.2,0.3,2.7,1
			s0.8,1.6,0.8,2.8v4.3c0,1.3-0.3,2.2-0.8,2.9s-1.4,1-2.7,1C109.7,22,108.8,21.6,108.3,21z M111.7,19.8c0.1-0.2,0.2-0.6,0.2-1v-5.6
			c0-0.4-0.1-0.8-0.2-1c-0.1-0.2-0.4-0.4-0.7-0.4c-0.3,0-0.6,0.1-0.7,0.4c-0.1,0.2-0.2,0.6-0.2,1v5.6c0,0.4,0.1,0.8,0.2,1
			c0.1,0.2,0.3,0.4,0.7,0.4C111.3,20.1,111.6,20,111.7,19.8z"/>
		<path class="st1" d="M116.7,21c-0.5-0.6-0.8-1.6-0.8-2.9v-4.3c0-1.3,0.3-2.2,0.8-2.8c0.5-0.6,1.4-1,2.7-1c1.3,0,2.2,0.3,2.7,1
			s0.8,1.6,0.8,2.8v4.3c0,1.3-0.3,2.2-0.8,2.9s-1.4,1-2.7,1C118.1,22,117.2,21.6,116.7,21z M120.1,19.8c0.1-0.2,0.2-0.6,0.2-1v-5.6
			c0-0.4-0.1-0.8-0.2-1c-0.1-0.2-0.4-0.4-0.7-0.4c-0.3,0-0.6,0.1-0.7,0.4c-0.1,0.2-0.2,0.6-0.2,1v5.6c0,0.4,0.1,0.8,0.2,1
			c0.1,0.2,0.3,0.4,0.7,0.4C119.7,20.1,120,20,120.1,19.8z"/>
		<path class="st1" d="M124.4,10.2h1.8l2.4,5.6v-5.6h2.1v11.6H129l-2.4-6v6h-2.2V10.2z"/>
	</g>
</g>
</svg>
