<?xml version="1.0" encoding="utf-8"?>
<!-- Generator: Adobe Illustrator 19.1.0, SVG Export Plug-In . SVG Version: 6.00 Build 0)  -->
<svg version="1.1" id="Layer_1" xmlns="http://www.w3.org/2000/svg" xmlns:xlink="http://www.w3.org/1999/xlink" x="0px" y="0px"
	 viewBox="0 0 180 32" style="enable-background:new 0 0 180 32;" xml:space="preserve">
<style type="text/css">
	.st0{fill:#FFFFFF;}
	.st1{fill:#161717;}
</style>
<rect class="st0" width="180" height="32"/>
<g>
	<g>
		<path class="st1" d="M62.6,21.1c-0.5-0.6-0.8-1.5-0.9-2.8l2.2-0.3c0,0.7,0.1,1.3,0.3,1.6c0.2,0.3,0.4,0.5,0.8,0.5
			c0.4,0,0.6-0.3,0.6-0.8c0-0.4-0.1-0.8-0.3-1.2c-0.2-0.3-0.5-0.7-1-1l-1-0.9c-0.5-0.4-0.9-0.9-1.2-1.3c-0.3-0.4-0.4-1-0.4-1.7
			c0-1,0.3-1.7,0.9-2.2c0.6-0.5,1.4-0.8,2.4-0.8c1.1,0,1.8,0.3,2.2,1c0.4,0.6,0.6,1.4,0.6,2.3l-2.2,0.3c0-0.6-0.1-1-0.2-1.3
			s-0.3-0.4-0.6-0.4c-0.2,0-0.4,0.1-0.5,0.3c-0.1,0.2-0.2,0.4-0.2,0.6c0,0.4,0.1,0.7,0.3,1c0.2,0.3,0.5,0.6,0.8,0.9l1,0.8
			c0.6,0.5,1,1,1.3,1.6c0.3,0.5,0.5,1.2,0.5,1.9c0,0.5-0.1,1-0.4,1.5s-0.6,0.8-1.1,1.1c-0.5,0.3-1,0.4-1.6,0.4
			C63.9,22,63.1,21.7,62.6,21.1z"/>
		<path class="st1" d="M69.9,21c-0.5-0.6-0.8-1.6-0.8-2.9v-4.3c0-1.3,0.3-2.2,0.8-2.8c0.5-0.6,1.4-1,2.7-1c1.3,0,2.2,0.3,2.7,1
			s0.8,1.6,0.8,2.8v4.3c0,1.3-0.3,2.2-0.8,2.9s-1.4,1-2.7,1C71.4,22,70.5,21.6,69.9,21z M73.3,19.8c0.1-0.2,0.2-0.6,0.2-1v-5.6
			c0-0.4-0.1-0.8-0.2-1c-0.1-0.2-0.4-0.4-0.7-0.4c-0.3,0-0.6,0.1-0.7,0.4s-0.2,0.6-0.2,1v5.6c0,0.4,0.1,0.8,0.2,1
			c0.1,0.2,0.3,0.4,0.7,0.4S73.2,20,73.3,19.8z"/>
		<path class="st1" d="M77.7,10.2h2.6v9.9h2.7v1.7h-5.2V10.2z"/>
		<path class="st1" d="M84,10.2H87c1,0,1.8,0.1,2.3,0.4c0.6,0.2,1,0.6,1.2,1.2s0.4,1.2,0.4,2.1v4.2c0,0.9-0.1,1.6-0.4,2.1
			c-0.2,0.5-0.6,0.9-1.2,1.2S88,21.8,87,21.8h-3V10.2z M87,20c0.4,0,0.6-0.1,0.8-0.2c0.2-0.1,0.3-0.3,0.3-0.5c0-0.2,0.1-0.5,0.1-0.9
			v-5.1c0-0.4,0-0.7-0.1-0.9c-0.1-0.2-0.2-0.3-0.3-0.4C87.6,12,87.4,12,87,12h-0.4v8H87z"/>
		<path class="st1" d="M96.7,21c-0.5-0.6-0.8-1.6-0.8-2.9v-4.3c0-1.3,0.3-2.2,0.8-2.8c0.5-0.6,1.4-1,2.7-1c1.3,0,2.2,0.3,2.7,1
			s0.8,1.6,0.8,2.8v4.3c0,1.3-0.3,2.2-0.8,2.9s-1.4,1-2.7,1C98.2,22,97.3,21.6,96.7,21z M100.1,19.8c0.1-0.2,0.2-0.6,0.2-1v-5.6
			c0-0.4-0.1-0.8-0.2-1c-0.1-0.2-0.4-0.4-0.7-0.4c-0.3,0-0.6,0.1-0.7,0.4c-0.1,0.2-0.2,0.6-0.2,1v5.6c0,0.4,0.1,0.8,0.2,1
			c0.1,0.2,0.3,0.4,0.7,0.4C99.8,20.1,100,20,100.1,19.8z"/>
		<path class="st1" d="M105.8,21.5c-0.5-0.3-0.9-0.7-1.1-1.2c-0.2-0.5-0.3-1.2-0.3-2.1v-8h2.5v8.4c0,0.5,0.1,0.8,0.2,1.1
			c0.1,0.3,0.4,0.4,0.7,0.4c0.4,0,0.6-0.1,0.7-0.4c0.1-0.3,0.2-0.6,0.2-1.1v-8.4h2.5v8c0,0.8-0.1,1.5-0.3,2.1
			c-0.2,0.5-0.6,1-1.1,1.2c-0.5,0.3-1.2,0.4-2.1,0.4C107,22,106.3,21.8,105.8,21.5z"/>
		<path class="st1" d="M114,12.1h-1.8v-1.9h6.1v1.9h-1.8v9.7H114V12.1z"/>
	</g>
</g>
</svg>
